# xmcd
# 
# Track frame offsets:
#     150
#     15291
#     27901
#     47165
#     63993
#     81150
#     93871
#     108900
#     123369
#     138389
#     156929
#     172145
# 
# Disc length: 2500
# 
# Revision: 4
# Processed by: cddbd v1.5.2PL0 Copyright (c) Steve Scherf et al.
# Submitted via: fre:ac v1.0.31
# 
DISCID=9309c20c
DTITLE=Third Day - Miracle
DYEAR=2012
DGENRE=Christian Rock
TTITLE0=Hit Me Like A Bomb
TTITLE1=Kicking And Screaming
TTITLE2=Your Love Is Like A River
TTITLE3=I Need A Miracle
TTITLE4=You Are My Everything
TTITLE5=For The Rest Of My Life
TTITLE6=I Want To Believe In You
TTITLE7=The Victory
TTITLE8=Take Me Back
TTITLE9=Forever Yours
TTITLE10=Time's Running Out On Me
TTITLE11=Morning Has Broken
EXTD=
EXTT0=
EXTT1=
EXTT2=
EXTT3=
EXTT4=
EXTT5=
EXTT6=
EXTT7=
EXTT8=
EXTT9=
EXTT10=
EXTT11=
PLAYORDER=
